<svg
    width="136"
    height="24"
    viewBox="0 0 136 24"
    fill="none"
    xmlns="http://www.w3.org/2000/svg"
>
    <path
        fillRule="evenodd"
        clipRule="evenodd"
        d="M102.66 5.61372V11.3328H108.408V5.61372H110.66V19H108.408V13.227H102.66V19H100.408V5.61372H102.66ZM119.689 5L125.941 19H123.476L122.252 16.1309H117.126L115.903 19H113.417L119.689 5ZM136 5.61372V7.48998H132.039V19H129.767V7.48998H125.806V5.61372H136ZM52.2718 5.61372C54.1749 5.61372 55.282 6.33551 55.8642 6.94897C56.6212 7.72461 57.0292 8.80689 57.0292 10.0523C57.0292 11.278 56.6212 12.3613 55.8642 13.1372C55.515 13.4976 54.971 13.9128 54.1941 14.1646L58.0778 19H55.5341L51.9033 14.4712H50.2524V19H48V5.61372H52.2718ZM66.1747 5L72.4271 19H69.9613L68.7379 16.1309H63.6114L62.3881 19H59.9027L66.1747 5ZM79.4757 5.61372C81.3789 5.61372 82.4858 6.33551 83.0681 6.93037C83.8447 7.72461 84.2331 8.78908 84.2331 10.0337C84.2331 11.278 83.8447 12.3613 83.0681 13.1372C82.4858 13.7505 81.3789 14.4712 79.4757 14.4712H77.4566V19H75.2039V5.61372H79.4757ZM93.4757 5.61372C94.4461 5.61372 95.3976 5.77564 96.2916 6.1372L96.6018 6.26315V8.73452C95.7278 8.0673 94.6406 7.70707 93.4757 7.70707C92.1552 7.70707 90.9127 8.1758 89.9804 9.05976C89.0484 9.92539 88.5245 11.0798 88.5245 12.3068C88.5245 13.5336 89.0484 14.6884 89.9804 15.5536C90.9127 16.4202 92.1552 16.9077 93.4757 16.9077C94.7965 16.9077 96.039 16.4202 96.9707 15.5536C97.1465 15.3917 97.3006 15.2293 97.4565 15.0486V17.8991C97.0873 18.1159 96.6991 18.3143 96.2916 18.4765C95.3976 18.8192 94.4461 19 93.4757 19C92.5049 19 91.5533 18.8192 90.6798 18.4765C89.8061 18.1345 89.0484 17.647 88.3882 17.0337C87.728 16.4202 87.2038 15.7169 86.8348 14.9053C86.466 14.0925 86.2717 13.2095 86.2717 12.3068C86.2717 11.4053 86.466 10.5212 86.8348 9.69112C87.2038 8.89795 87.728 8.1758 88.3882 7.56234C89.0484 6.94897 89.8061 6.46147 90.6798 6.1372C91.5533 5.77564 92.5049 5.61372 93.4757 5.61372ZM66.1747 10.1783L64.4274 14.2554H67.9227L66.1747 10.1783ZM119.689 10.1781L117.941 14.2554H121.436L119.689 10.1781ZM52.2718 7.50778H50.2524V12.5961H52.2718C53.2038 12.5961 53.9028 12.3429 54.3499 11.874C54.8935 11.3328 54.9905 10.5747 54.9905 10.0523C54.9905 9.51025 54.8935 8.75312 54.3499 8.21212C53.9028 7.74312 53.2038 7.50778 52.2718 7.50778ZM79.4757 7.48998H77.4566V12.5772H79.4757C80.4077 12.5772 81.107 12.3429 81.573 11.874C82.0973 11.3328 82.214 10.5747 82.214 10.0337C82.214 9.51024 82.0973 8.75312 81.573 8.21212C81.107 7.74312 80.4077 7.48998 79.4757 7.48998Z"
        fill="white"
    />
    <path
        fillRule="evenodd"
        clipRule="evenodd"
        d="M7.11597 0C10.2847 0 12.0987 1.32917 13.0625 2.44424C14.0411 3.54558 14.6632 4.96392 14.8934 6.59911C15.4603 5.47103 16.1885 4.45169 17.065 3.55698C18.0911 2.5095 19.2408 1.69761 20.4861 1.14006L20.7994 1.00598C22.1575 0.389444 23.6902 0.0737864 25.3411 0.0737864C26.8645 0.0737864 28.303 0.345607 29.6222 0.882234L30.0005 1.0431L30.1738 1.1222C30.252 1.15847 30.3299 1.19489 30.4008 1.22377L30.6587 1.3289V6.76153L29.9883 6.19892C28.6801 5.10081 27.0731 4.52057 25.3411 4.52057C23.3581 4.52057 21.5137 5.30459 20.1472 6.72851C18.7476 8.15757 17.9783 10.0417 17.9783 12.0368C17.9783 14.0321 18.7476 15.9162 20.1443 17.3421C21.5411 18.7679 23.3868 19.5534 25.3411 19.5534C27.2956 19.5534 29.1412 18.7679 30.5378 17.3421C30.7972 17.0773 31.0298 16.8113 31.2699 16.5052L32 15.5738V21.914L31.8089 22.0372C31.1546 22.4591 30.5375 22.7949 29.9224 23.0637C28.4477 23.6857 26.908 24 25.3411 24C23.7625 24 22.2321 23.6853 20.7923 23.0647C19.4134 22.4703 18.1594 21.6025 17.065 20.4857C15.971 19.3688 15.1211 18.0887 14.5387 16.6807C14.0398 15.4744 13.7428 14.206 13.6522 12.8992C13.4724 13.1739 13.2739 13.4335 13.0588 13.6756C12.6052 14.1902 11.8602 14.8685 10.7825 15.3559L17.0475 23.9263H12.0311L6.33101 16.1159H4.35587V23.9263H0V0H7.11597ZM7.11597 4.1044H4.35587V12.0425H7.11597C8.44197 12.0425 9.43596 11.6712 10.0705 10.939C10.6721 10.2807 10.9734 9.31934 10.9734 8.07343C10.9734 6.80683 10.6721 5.83519 10.0777 5.18495C9.45391 4.46524 8.45991 4.1044 7.11597 4.1044Z"
        fill="white"
    />
</svg>